<svg width="22" height="18" viewBox="0 0 22 18" fill="none" xmlns="http://www.w3.org/2000/svg">
<path d="M14.8082 12.1025C14.7345 12.1729 14.7345 12.2432 14.7345 12.3135V16.2861H1.76814V3.91113H10.6457C10.7194 3.91113 10.793 3.91113 10.8667 3.84082L12.0455 2.71582C12.2296 2.54004 12.0823 2.22363 11.8244 2.22363H1.76814C0.773562 2.22363 0 2.99707 0 3.91113V16.2861C0 17.2354 0.773562 17.9736 1.76814 17.9736H14.7345C15.6923 17.9736 16.5027 17.2354 16.5027 16.2861V11.1885C16.5027 10.9424 16.1711 10.8018 15.9869 10.9775L14.8082 12.1025ZM20.5546 5.03613C21.4019 4.22754 21.4019 2.92676 20.5546 2.11816L18.9707 0.606445C18.1234 -0.202148 16.7605 -0.202148 15.9133 0.606445L6.26217 9.81738L5.89381 13.0166C5.7833 13.9307 6.59369 14.7041 7.55144 14.5986L10.9035 14.2471L20.5546 5.03613ZM16.9447 6.09082L10.0931 12.6299L7.66195 12.9111L7.95664 10.5908L14.8082 4.05176L16.9447 6.09082ZM19.3022 3.31348C19.4864 3.4541 19.4864 3.66504 19.339 3.84082L18.1971 4.93066L16.0606 2.85645L17.1657 1.80176C17.3131 1.62598 17.5709 1.62598 17.7183 1.80176L19.3022 3.31348Z" fill="#828894"/>
</svg>
