<svg width="18" height="18" viewBox="0 0 18 18" fill="none" xmlns="http://www.w3.org/2000/svg">
<path d="M10.7266 14.625H11.643C11.8721 14.625 12.1012 14.4492 12.1012 14.2031V6.60938C12.1012 6.39844 11.8721 6.1875 11.643 6.1875H10.7266C10.4594 6.1875 10.2685 6.39844 10.2685 6.60938V14.2031C10.2685 14.4492 10.4594 14.625 10.7266 14.625ZM16.9885 2.8125H13.8194L12.5212 0.84375C12.2157 0.386719 11.5285 0 10.9557 0H7.09933C6.5266 0 5.83932 0.386719 5.53386 0.84375L4.23566 2.8125H1.10472C0.761081 2.8125 0.493805 3.09375 0.493805 3.375V3.9375C0.493805 4.25391 0.761081 4.5 1.10472 4.5H1.71564V16.3125C1.71564 17.2617 2.51746 18 3.54838 18H14.5449C15.5376 18 16.3776 17.2617 16.3776 16.3125V4.5H16.9885C17.294 4.5 17.5994 4.25391 17.5994 3.9375V3.375C17.5994 3.09375 17.294 2.8125 16.9885 2.8125ZM7.02297 1.79297C7.06115 1.75781 7.17569 1.6875 7.21388 1.6875H7.25206H10.8412C10.8794 1.6875 10.9939 1.75781 11.0321 1.79297L11.6812 2.8125H6.37387L7.02297 1.79297ZM14.5449 16.3125H3.54838V4.5H14.5449V16.3125ZM6.45023 14.625H7.36661C7.5957 14.625 7.82479 14.4492 7.82479 14.2031V6.60938C7.82479 6.39844 7.5957 6.1875 7.36661 6.1875H6.45023C6.18296 6.1875 5.99205 6.39844 5.99205 6.60938V14.2031C5.99205 14.4492 6.18296 14.625 6.45023 14.625Z" fill="#E75249"/>
</svg>
